<svg width="120" height="31" viewBox="0 0 120 31" fill="none" xmlns="http://www.w3.org/2000/svg">
<path d="M16.3361 9.10365C15.9921 8.30365 15.4961 7.61165 14.8521 7.03165C14.2081 6.45565 13.4241 6.01165 12.5001 5.70365C11.5761 5.39565 10.5481 5.24365 9.40814 5.24365H1.69214V8.34765H9.12014C10.4121 8.34765 11.4401 8.64365 12.2081 9.23165C12.9761 9.82365 13.3601 10.6957 13.3601 11.8597V11.9157C13.3601 12.9437 12.9801 13.7877 12.2241 14.4437C11.4681 15.0997 10.4321 15.4277 9.12414 15.4277H1.69214V24.8277H5.10414V18.5317H9.00014C10.0841 18.5317 11.1041 18.3877 12.0561 18.0997C13.0081 17.8117 13.8401 17.3877 14.5521 16.8277C15.2641 16.2677 15.8241 15.5717 16.2361 14.7437C16.6481 13.9157 16.8521 12.9477 16.8521 11.8477V11.7917C16.8521 10.8037 16.6801 9.90765 16.3361 9.10765V9.10365Z" fill="#101C3B"/>
<path d="M31.7078 17.4157C32.3958 17.2277 33.0278 16.9637 33.5958 16.6197C34.1638 16.2757 34.6558 15.8557 35.0638 15.3597C35.4758 14.8677 35.7958 14.2957 36.0278 13.6517C36.2598 13.0077 36.3758 12.2837 36.3758 11.4837V11.4277C36.3758 10.5717 36.2358 9.78765 35.9558 9.07565C35.6758 8.36765 35.2758 7.74365 34.7518 7.19965C34.1158 6.58365 33.3238 6.10365 32.3718 5.75965C31.4198 5.41565 30.3278 5.24365 29.0998 5.24365H20.3718V8.34765H28.8078C30.0998 8.34765 31.0998 8.62365 31.8118 9.17565C32.5238 9.72765 32.8798 10.5397 32.8798 11.6077V11.6637C32.8798 12.6757 32.5158 13.4757 31.7838 14.0677C31.0518 14.6597 30.0718 14.9517 28.8358 14.9517H20.3758V17.9997H28.1078L32.9358 24.8277H36.9918L31.7038 17.4157H31.7078Z" fill="#101C3B"/>
<path d="M49.9527 25.164C48.4407 25.164 47.0607 24.9 45.8127 24.368C44.5647 23.836 43.4887 23.112 42.5967 22.2C41.7007 21.288 41.0007 20.22 40.4967 18.996C39.9927 17.776 39.7407 16.472 39.7407 15.092V15.036C39.7407 13.656 39.9927 12.356 40.4967 11.132C41.0007 9.91196 41.7087 8.83596 42.6247 7.91596C43.5367 6.99196 44.6207 6.25996 45.8687 5.71996C47.1167 5.17996 48.4967 4.90796 50.0087 4.90796C51.5207 4.90796 52.9007 5.17196 54.1487 5.70396C55.3967 6.23596 56.4727 6.95996 57.3647 7.87196C58.2607 8.78796 58.9607 9.85196 59.4647 11.076C59.9687 12.296 60.2207 13.6 60.2207 14.98V15.036C60.2207 16.416 59.9687 17.716 59.4647 18.94C58.9607 20.16 58.2527 21.236 57.3367 22.156C56.4207 23.08 55.3407 23.812 54.0927 24.352C52.8447 24.892 51.4647 25.164 49.9527 25.164ZM50.0087 22.004C50.9727 22.004 51.8607 21.824 52.6687 21.46C53.4767 21.096 54.1687 20.604 54.7447 19.976C55.3207 19.352 55.7687 18.62 56.0967 17.78C56.4207 16.94 56.5847 16.044 56.5847 15.096V15.04C56.5847 14.088 56.4207 13.188 56.0967 12.34C55.7727 11.492 55.3167 10.756 54.7327 10.128C54.1487 9.50396 53.4447 9.00396 52.6287 8.63196C51.8127 8.25996 50.9207 8.07196 49.9527 8.07196C48.9847 8.07196 48.1007 8.25196 47.2927 8.61596C46.4847 8.97996 45.7927 9.47596 45.2167 10.1C44.6407 10.724 44.1927 11.456 43.8647 12.296C43.5407 13.136 43.3767 14.032 43.3767 14.98V15.036C43.3767 15.988 43.5407 16.888 43.8647 17.736C44.1887 18.584 44.6447 19.32 45.2287 19.948C45.8127 20.572 46.5167 21.072 47.3327 21.444C48.1487 21.816 49.0407 22.004 50.0087 22.004Z" fill="#101C3B"/>
<path d="M78.9512 8.76796C78.6072 7.96796 78.1112 7.27596 77.4672 6.69596C76.8232 6.11996 76.0392 5.67596 75.1152 5.36796C74.1912 5.05996 73.1632 4.90796 72.0232 4.90796H64.3032V8.01196H71.7312C73.0232 8.01196 74.0512 8.30796 74.8192 8.89596C75.5872 9.48796 75.9712 10.36 75.9712 11.524V11.58C75.9712 12.608 75.5912 13.452 74.8352 14.108C74.0792 14.764 73.0432 15.092 71.7352 15.092H64.3072V24.492H67.7192V18.196H71.6152C72.6992 18.196 73.7192 18.052 74.6712 17.764C75.6232 17.476 76.4552 17.052 77.1672 16.492C77.8792 15.932 78.4392 15.236 78.8512 14.408C79.2632 13.58 79.4672 12.612 79.4672 11.512V11.456C79.4672 10.468 79.2952 9.57196 78.9512 8.77196V8.76796Z" fill="#101C3B"/>
<path d="M97.4888 4.90796H82.9968V8.01196H97.4888V4.90796Z" fill="#84C325"/>
<path d="M88.2808 21.3882H82.9968V24.4922H88.2808V21.3882Z" fill="#EA8600"/>
<path d="M93.0848 13.1479H82.9968V16.2519H93.0848V13.1479Z" fill="#007CE3"/>
<path d="M101.738 4.90796H105.15V21.388H115.446V24.492H101.738V4.90796Z" fill="#101C3B"/>
</svg>
